<?xml version="1.0" standalone="no"?>
<!DOCTYPE svg PUBLIC "-//W3C//DTD SVG 20010904//EN"
 "http://www.w3.org/TR/2001/REC-SVG-20010904/DTD/svg10.dtd">
<svg version="1.0" xmlns="http://www.w3.org/2000/svg"
 width="512.000000pt" height="512.000000pt" viewBox="0 0 512.000000 512.000000"
 preserveAspectRatio="xMidYMid meet">

<g transform="translate(0.000000,512.000000) scale(0.100000,-0.100000)"
fill="#000000" stroke="none">
<path d="M990 2710 l0 -1399 128 -3 127 -3 3 -128 3 -127 1397 2 1397 3 3
1397 2 1397 -127 3 -128 3 -3 128 -3 127 -1399 0 -1400 0 0 -1400z m2758 -2
l-3 -1353 -1352 -3 -1353 -2 0 1355 0 1355 1355 0 1355 0 -2 -1352z"/>
<path d="M2239 3456 c-147 -31 -265 -96 -378 -206 -189 -185 -268 -442 -215
-698 46 -223 196 -418 398 -517 128 -63 197 -79 341 -79 140 0 211 16 330 73
252 121 413 356 430 632 15 226 -59 412 -230 584 -99 99 -197 159 -323 197
-88 26 -263 32 -353 14z m288 -190 c178 -47 337 -202 393 -383 98 -317 -90
-654 -406 -729 -136 -32 -302 -2 -423 76 -71 45 -162 147 -200 225 -91 185
-76 406 41 580 74 112 188 195 315 230 64 18 215 18 280 1z"/>
</g>
</svg>
